HIERARCHY
ROOT Hips
{
    OFFSET   0.000000   0.000000   0.000000
    CHANNELS 6 Xposition Yposition Zposition Zrotation Xrotation Yrotation
    JOINT Chest
    {
        OFFSET   0.000000   8.007240   0.000000
        CHANNELS 3 Zrotation Xrotation Yrotation
        JOINT Chest2
        {
            OFFSET   0.000000  22.077100   0.000000
            CHANNELS 3 Zrotation Xrotation Yrotation
            JOINT Neck
            {
                OFFSET   0.000000  23.254800   0.000000
                CHANNELS 3 Zrotation Xrotation Yrotation
                JOINT Head
                {
                    OFFSET   0.000000  14.370000   1.956600
                    CHANNELS 3 Zrotation Xrotation Yrotation
                    End Site
                    {
                        OFFSET   0.000000  19.566000   0.000000
                    }
                }
            }
            JOINT LeftCollar
            {
                OFFSET   3.911900  19.017000  -0.467064
                CHANNELS 3 Zrotation Xrotation Yrotation
                JOINT LeftShoulder
                {
                    OFFSET  10.383700   0.000000   0.000000
                    CHANNELS 3 Zrotation Xrotation Yrotation
                    JOINT LeftElbow
                    {
                        OFFSET  26.662100   0.001476   0.000517
                        CHANNELS 3 Zrotation Xrotation Yrotation
                        JOINT LeftWrist
                        {
                            OFFSET  28.869000  -0.000025  -0.000106
                            CHANNELS 3 Zrotation Xrotation Yrotation
                            JOINT LeftFinger0
                            {
                                OFFSET   2.044660  -2.323460   3.252850
                                CHANNELS 3 Zrotation Xrotation Yrotation
                                JOINT LeftFinger01
                                {
                                    OFFSET   3.088130   0.000000   0.000000
                                    CHANNELS 3 Zrotation Xrotation Yrotation
                                    JOINT LeftFinger02
                                    {
                                        OFFSET   2.639460   0.000000   0.000000
                                        CHANNELS 3 Zrotation Xrotation Yrotation
                                        End Site
                                        {
                                            OFFSET   2.582190   0.000000   0.000000
                                        }
                                    }
                                }
                            }
                            JOINT LeftFinger1
                            {
                                OFFSET   8.364480   0.000000   3.252850
                                CHANNELS 3 Zrotation Xrotation Yrotation
                                JOINT LeftFinger11
                                {
                                    OFFSET   4.646930   0.000000   0.000000
                                    CHANNELS 3 Zrotation Xrotation Yrotation
                                    JOINT LeftFinger12
                                    {
                                        OFFSET   2.323460   0.000000   0.000000
                                        CHANNELS 3 Zrotation Xrotation Yrotation
                                        End Site
                                        {
                                            OFFSET   2.273050   0.000000   0.000000
                                        }
                                    }
                                }
                            }
                            JOINT LeftFinger2
                            {
                                OFFSET   8.364490   0.000015   1.078090
                                CHANNELS 3 Zrotation Xrotation Yrotation
                                JOINT LeftFinger21
                                {
                                    OFFSET   5.111620   0.000000   0.000000
                                    CHANNELS 3 Zrotation Xrotation Yrotation
                                    JOINT LeftFinger22
                                    {
                                        OFFSET   2.788160   0.000016   0.000000
                                        CHANNELS 3 Zrotation Xrotation Yrotation
                                        End Site
                                        {
                                            OFFSET   2.727660   0.000000   0.000000
                                        }
                                    }
                                }
                            }
                            JOINT LeftFinger3
                            {
                                OFFSET   7.899780   0.000017  -1.078090
                                CHANNELS 3 Zrotation Xrotation Yrotation
                                JOINT LeftFinger31
                                {
                                    OFFSET   4.646930   0.000000   0.000000
                                    CHANNELS 3 Zrotation Xrotation Yrotation
                                    JOINT LeftFinger32
                                    {
                                        OFFSET   2.323470   0.000000   0.000000
                                        CHANNELS 3 Zrotation Xrotation Yrotation
                                        End Site
                                        {
                                            OFFSET   2.273050   0.000000   0.000000
                                        }
                                    }
                                }
                            }
                            JOINT LeftFinger4
                            {
                                OFFSET   7.435090   0.000000  -3.252850
                                CHANNELS 3 Zrotation Xrotation Yrotation
                                JOINT LeftFinger41
                                {
                                    OFFSET   3.717550   0.000000   0.000000
                                    CHANNELS 3 Zrotation Xrotation Yrotation
                                    JOINT LeftFinger42
                                    {
                                        OFFSET   1.858770   0.000000   0.000000
                                        CHANNELS 3 Zrotation Xrotation Yrotation
                                        End Site
                                        {
                                            OFFSET   1.818440   0.000000   0.000000
                                        }
                                    }
                                }
                            }
                        }
                    }
                }
            }
            JOINT RightCollar
            {
                OFFSET  -3.911900  19.017000  -0.467063
                CHANNELS 3 Zrotation Xrotation Yrotation
                JOINT RightShoulder
                {
                    OFFSET -10.383700   0.000019   0.000000
                    CHANNELS 3 Zrotation Xrotation Yrotation
                    JOINT RightElbow
                    {
                        OFFSET -26.662100   0.001175   0.000102
                        CHANNELS 3 Zrotation Xrotation Yrotation
                        JOINT RightWrist
                        {
                            OFFSET -28.869000   0.000016  -0.000079
                            CHANNELS 3 Zrotation Xrotation Yrotation
                            JOINT RightFinger0
                            {
                                OFFSET  -2.044660  -2.323490   3.252850
                                CHANNELS 3 Zrotation Xrotation Yrotation
                                JOINT RightFinger01
                                {
                                    OFFSET  -3.088140   0.000000   0.000000
                                    CHANNELS 3 Zrotation Xrotation Yrotation
                                    JOINT RightFinger02
                                    {
                                        OFFSET  -2.639460   0.000000   0.000000
                                        CHANNELS 3 Zrotation Xrotation Yrotation
                                        End Site
                                        {
                                            OFFSET  -2.582190   0.000000   0.000000
                                        }
                                    }
                                }
                            }
                            JOINT RightFinger1
                            {
                                OFFSET  -8.364480   0.000000   3.252850
                                CHANNELS 3 Zrotation Xrotation Yrotation
                                JOINT RightFinger11
                                {
                                    OFFSET  -4.646930   0.000000   0.000000
                                    CHANNELS 3 Zrotation Xrotation Yrotation
                                    JOINT RightFinger12
                                    {
                                        OFFSET  -2.323470   0.000000   0.000000
                                        CHANNELS 3 Zrotation Xrotation Yrotation
                                        End Site
                                        {
                                            OFFSET  -2.273050   0.000000   0.000000
                                        }
                                    }
                                }
                            }
                            JOINT RightFinger2
                            {
                                OFFSET  -8.364480   0.000000   1.078090
                                CHANNELS 3 Zrotation Xrotation Yrotation
                                JOINT RightFinger21
                                {
                                    OFFSET  -5.111620   0.000000   0.000000
                                    CHANNELS 3 Zrotation Xrotation Yrotation
                                    JOINT RightFinger22
                                    {
                                        OFFSET  -2.788160   0.000000   0.000000
                                        CHANNELS 3 Zrotation Xrotation Yrotation
                                        End Site
                                        {
                                            OFFSET  -2.727660   0.000000   0.000000
                                        }
                                    }
                                }
                            }
                            JOINT RightFinger3
                            {
                                OFFSET  -7.899780   0.000000  -1.078090
                                CHANNELS 3 Zrotation Xrotation Yrotation
                                JOINT RightFinger31
                                {
                                    OFFSET  -4.646930   0.000000   0.000000
                                    CHANNELS 3 Zrotation Xrotation Yrotation
                                    JOINT RightFinger32
                                    {
                                        OFFSET  -2.323470   0.000000   0.000000
                                        CHANNELS 3 Zrotation Xrotation Yrotation
                                        End Site
                                        {
                                            OFFSET  -2.273050   0.000000   0.000000
                                        }
                                    }
                                }
                            }
                            JOINT RightFinger4
                            {
                                OFFSET  -7.435090   0.000000  -3.252850
                                CHANNELS 3 Zrotation Xrotation Yrotation
                                JOINT RightFinger41
                                {
                                    OFFSET  -3.717550   0.000000   0.000000
                                    CHANNELS 3 Zrotation Xrotation Yrotation
                                    JOINT RightFinger42
                                    {
                                        OFFSET  -1.858770   0.000000   0.000000
                                        CHANNELS 3 Zrotation Xrotation Yrotation
                                        End Site
                                        {
                                            OFFSET  -1.818440   0.000000   0.000000
                                        }
                                    }
                                }
                            }
                        }
                    }
                }
            }
        }
    }
    JOINT LeftHip
    {
        OFFSET   9.783040   0.000000   0.000000
        CHANNELS 3 Zrotation Xrotation Yrotation
        JOINT LeftKnee
        {
            OFFSET   0.000032 -41.789100  -0.002222
            CHANNELS 3 Zrotation Xrotation Yrotation
            JOINT LeftAnkle
            {
                OFFSET   0.000087 -41.133200  -0.000135
                CHANNELS 3 Zrotation Xrotation Yrotation
                JOINT LeftToe
                {
                    OFFSET   0.000000  -6.358960  14.674500
                    CHANNELS 3 Zrotation Xrotation Yrotation
                    End Site
                    {
                        OFFSET   0.000000   0.000000   3.913200
                    }
                }
            }
        }
    }
    JOINT RightHip
    {
        OFFSET  -9.783040   0.000000   0.000000
        CHANNELS 3 Zrotation Xrotation Yrotation
        JOINT RightKnee
        {
            OFFSET   0.000047 -41.789100  -0.000896
            CHANNELS 3 Zrotation Xrotation Yrotation
            JOINT RightAnkle
            {
                OFFSET  -0.000117 -41.133300  -0.000248
                CHANNELS 3 Zrotation Xrotation Yrotation
                JOINT RightToe
                {
                    OFFSET   0.000000  -6.358970  14.674500
                    CHANNELS 3 Zrotation Xrotation Yrotation
                    End Site
                    {
                        OFFSET   0.000000   0.000000   3.913200
                    }
                }
            }
        }
    }
}
MOTION
Frames: 6
Frame Time:   0.016667
 -1.721600  89.517200  -0.953871  -1.919210  -2.496120   0.967522   0.687388   1.646310  -0.615004   1.393290   3.285030  -1.250510   1.393560   1.846100  -0.051297   2.296480   3.736780   2.740010  -2.740240   0.673963  -0.246394 -74.173600  15.451900  -3.094420  -2.109810  -4.225220  -9.017130   4.708500  -8.846480   9.675400  40.396500  28.746300 -68.603200 -12.221600  -0.002910  -0.000599  -1.104150  -0.001443  -0.000000 -25.255500   4.569920  -9.586480 -20.977300   0.002323   0.030519 -14.684100  -0.017699   0.015561 -25.777300   3.194340  -6.578730 -25.961000   0.030147   0.080018 -17.289900  -0.005424   0.055664 -25.402800   1.070260  -2.249050 -25.423800   0.017998   0.068107 -16.932200  -0.017637   0.042302 -29.585500   1.125940  -1.985740 -44.407400  -0.018871   0.017911 -29.575300  -0.017183  -0.001276   3.155750  -0.737779   6.951860  77.057900   6.955300  -1.042590   0.754121  -3.219010   7.575720 -14.001200  -8.697420   3.842160 -44.217100  33.879100  73.242300  18.376900   0.008684  -0.002840   4.177780   0.001520  -0.007845  23.762900   3.204040   7.234800  19.608100   0.004929  -0.002650  13.725700  -0.006260   0.000164  22.964000   2.828080   6.641580  23.128100   0.001756  -0.009516  15.403300  -0.000351  -0.004131  23.286700   2.136470   4.950490  23.379100   0.000553  -0.002406  15.570500   0.004229  -0.006932  28.486700   1.484750   2.729230  42.782800  -0.002394  -0.011055  28.493300   0.000089  -0.005189   2.561530   6.335550   2.186810   0.181053   0.842263   9.847350  -2.583340  -3.774110   2.705260  -0.000000   0.000000   0.000000   1.483480   1.138780  -2.577110   1.479270   4.504460  -6.570970  -5.115660  -2.421740  -3.630650   0.000000   0.000000   0.000000
 -1.721290  89.517300  -0.928578  -1.918590  -2.487370   0.984837   0.687389   1.646090  -0.615039   1.393290   3.284580  -1.250570   1.405910   1.833980  -0.051312   2.316690   3.712030   2.724310  -2.740270   0.674053  -0.246427 -74.172300  15.452500  -3.098770  -2.111070  -4.231250  -9.022010   4.706970  -8.846080   9.666480  40.391100  28.757500 -68.617000 -12.220100  -0.002923  -0.000600  -1.104080  -0.001441   0.000000 -25.269400   4.578510  -9.598290 -20.989700   0.002327   0.013624 -14.692800  -0.007481   0.007215 -25.797700   3.199270  -6.584370 -25.981900   0.020703   0.067924 -17.303900  -0.008337   0.045864 -25.421700   1.070150  -2.254710 -25.442700   0.015352   0.068078 -16.944800  -0.017618   0.042294 -29.604400   1.125890  -1.990520 -44.435800  -0.019016   0.018721 -29.594200  -0.017672  -0.001275   3.155810  -0.737720   6.951880  77.058500   6.968850  -1.034580   0.757055  -3.237980   7.581300 -13.993400  -8.697420   3.855300 -44.210200  33.891900  73.264000  18.374200   0.008683  -0.002824   4.177660   0.001521  -0.007852  23.776000   3.210760   7.245880  19.619300   0.004921  -0.002651  13.733500  -0.006259   0.000164  22.972700   2.834850   6.654690  23.137800   0.001756  -0.009517  15.409800  -0.000353  -0.004133  23.294600   2.140490   4.958000  23.387600   0.000554  -0.002405  15.576200   0.004229  -0.006931  28.495800   1.484530   2.729230  42.796600  -0.002395  -0.011055  28.502500   0.000089  -0.005189   2.567200   6.353730   2.187050   0.176357   0.823161   9.848910  -2.589300  -3.779750   2.689630   0.000000   0.000000   0.000000   1.475320   1.149590  -2.596870   1.499030   4.497230  -6.559400  -5.124510  -2.434220  -3.643090   0.000000   0.000000  -0.000000
 -1.720990  89.517400  -0.886397  -1.917570  -2.474070   1.012960   0.687390   1.645870  -0.615074   1.393280   3.284120  -1.250640   1.425990   1.811800  -0.051327   2.349540   3.666780   2.696130  -2.740290   0.674205  -0.246460 -74.169200  15.456800  -3.109060  -2.112730  -4.237250  -9.032170   4.703920  -8.842020   9.652100  40.388600  28.779700 -68.641800 -12.216600  -0.002937  -0.000600  -1.103940  -0.001428  -0.000000 -25.288700   4.589610  -9.612730 -21.006700   0.002335  -0.003271 -14.704700   0.002737  -0.001143 -25.818400   3.204590  -6.590890 -26.003000   0.007066   0.045398 -17.318000  -0.011249   0.028692 -25.440600   1.069990  -2.261170 -25.461500   0.010306   0.067873 -16.957400  -0.017485   0.042233 -29.623300   1.125830  -1.995290 -44.464100  -0.019162   0.019531 -29.613100  -0.018162  -0.001272   3.155920  -0.737660   6.951920  77.058900   6.993310  -1.019370   0.760806  -3.259230   7.595690 -13.984200  -8.697330   3.877730 -44.207100  33.907600  73.287100  18.367400   0.008682  -0.002807   4.177540   0.001522  -0.007859  23.788400   3.220450   7.262760  19.630500   0.004911  -0.002653  13.741400  -0.006258   0.000165  22.982800   2.844940   6.674730  23.148800   0.001754  -0.009520  15.417100  -0.000358  -0.004137  23.303400   2.147350   4.971570  23.396700   0.000554  -0.002402  15.582200   0.004229  -0.006929  28.509800   1.483740   2.729230  42.817700  -0.002396  -0.011056  28.516500   0.000086  -0.005188   2.576710   6.380900   2.187340   0.170515   0.804054   9.852750  -2.599720  -3.792750   2.663630  -0.000000   0.000000   0.000000   1.463060   1.167170  -2.627370   1.530290   4.490090  -6.536950  -5.139000  -2.455310  -3.668580  -0.000000   0.000000   0.000000
 -1.722170  89.517500  -0.852708  -1.916780  -2.465770   1.033700   0.686994   1.645890  -0.613344   1.392450   3.284180  -1.247160   1.440510   1.789730  -0.051310   2.373290   3.621880   2.669900  -2.740170   0.674333  -0.246425 -74.165100  15.468100  -3.122740  -2.114190  -4.233860  -9.046070   4.699970  -8.829810   9.641080  40.405100  28.812600 -68.671900 -12.209900   0.007791   0.005092  -1.103760   0.003841   0.000000 -25.294700   4.592540  -9.615800 -21.011800   0.002342  -0.003260 -14.708300   0.002708  -0.001155 -25.818400   3.205040  -6.591900 -26.003100  -0.000259   0.015766 -17.318100  -0.006106   0.009001 -25.439000   1.069920  -2.262100 -25.460000   0.003352   0.030154 -16.956400  -0.008390   0.018655 -29.620200   1.125800  -1.994230 -44.459500  -0.009003   0.008752 -29.610000  -0.008300  -0.001267   3.156030  -0.737662   6.951950  77.058400   7.017590  -1.002830   0.762345  -3.261810   7.617000 -13.982200  -8.684390   3.897280 -44.218500  33.913900  73.286800  18.355800   0.008682  -0.002811   4.177810   0.001511  -0.007856  23.785500   3.225160   7.274850  19.628800   0.004909  -0.002642  13.740900  -0.006258   0.000165  22.982800   2.851430   6.689330  23.149700   0.001748  -0.009524  15.417700  -0.000369  -0.004139  23.303100   2.154670   4.988240  23.397100   0.000550  -0.002395  15.582500   0.004235  -0.006930  28.517200   1.482110   2.727280  42.828800  -0.002395  -0.011056  28.523900   0.000082  -0.005185   2.585040   6.395490   2.184130   0.168624   0.806920   9.858990  -2.609160  -3.810210   2.642610   0.000000   0.000000   0.000000   1.455620   1.179150  -2.647740   1.550980   4.491450  -6.506150  -5.149730  -2.472590  -3.701400   0.000000   0.000000   0.000000
 -1.725210  89.517500  -0.818767  -1.915960  -2.459740   1.053990   0.686347   1.646040  -0.610138   1.391060   3.284560  -1.240730   1.455460   1.765530  -0.051273   2.397750   3.572770   2.640080  -2.739910   0.674447  -0.246350 -74.160300  15.489100  -3.141980  -2.116090  -4.230450  -9.059470   4.696100  -8.816170   9.631700  40.418900  28.834500 -68.691000 -12.205200   0.018518   0.010785  -1.103580   0.009098  -0.000000 -25.297500   4.592960  -9.616240 -21.014100   0.002351  -0.003238 -14.709900   0.002662  -0.001158 -25.818600   3.205100  -6.592050 -26.003200  -0.003392  -0.003435 -17.318200  -0.000963  -0.003317 -25.437600   1.069900  -2.262230 -25.458500  -0.001202  -0.007388 -16.955400   0.000590  -0.004871 -29.617200   1.125790  -1.990660 -44.454900   0.001156  -0.002026 -29.607000   0.001561  -0.001260   3.156140  -0.737677   6.951970  77.057400   7.042600  -0.985081   0.763798  -3.261980   7.646370 -13.981200  -8.671460   3.916180 -44.232100  33.917300  73.285100  18.344700   0.008682  -0.002814   4.178350   0.001495  -0.007850  23.783100   3.227890   7.281160  19.627000   0.004908  -0.002624  13.740400  -0.006258   0.000165  22.983400   2.854600   6.697010  23.150500   0.001739  -0.009528  15.418200  -0.000382  -0.004142  23.303200   2.159160   4.998860  23.397500   0.000542  -0.002384  15.582700   0.004240  -0.006932  28.525500   1.480140   2.723140  42.841000  -0.002393  -0.011058  28.532100   0.000069  -0.005181   2.593350   6.407500   2.178460   0.166749   0.816095   9.865410  -2.619090  -3.833060   2.622260   0.000000   0.000000  -0.000000   1.450630   1.192920  -2.662930   1.569710   4.492730  -6.483750  -5.160690  -2.490590  -3.735020  -0.000000   0.000000   0.000000
 -1.729680  89.517000  -0.784340  -1.915060  -2.456640   1.074900   0.685903   1.649170  -0.606934   1.390120   3.290870  -1.234350   1.472590   1.740400  -0.051220   2.425840   3.521930   2.605780  -2.739540   0.674527  -0.246247 -74.158500  15.522800  -3.168800  -2.117790  -4.232650  -9.067170   4.693660  -8.806200   9.626800  40.406100  28.810600 -68.665900 -12.208800   0.018507   0.010779  -1.103460   0.009091   0.000000 -25.300500   4.592400  -9.613060 -21.016600   0.002365  -0.003214 -14.711600   0.002628  -0.001165 -25.826400   3.203630  -6.585350 -26.010700  -0.003383  -0.003407 -17.323200  -0.000981  -0.003256 -25.445200   1.070370  -2.254640 -25.466200  -0.001200  -0.007374 -16.960500   0.000577  -0.004870 -29.625500   1.126050  -1.981700 -44.467300   0.001091  -0.001984 -29.615200   0.001512  -0.001251   3.156190  -0.737736   6.951580  77.056600   7.063950  -0.968585   0.761443  -3.257820   7.685150 -13.990000  -8.677400   3.932250 -44.234200  33.913700  73.277200  18.339700   0.008688  -0.002800   4.178990   0.001488  -0.007845  23.788600   3.228930   7.281100  19.631500   0.004906  -0.002611  13.742900  -0.006256   0.000163  22.989800   2.854340   6.695920  23.156400   0.001728  -0.009533  15.422200  -0.000390  -0.004147  23.310900   2.158420   4.995490  23.404700   0.000537  -0.002367  15.587500   0.004239  -0.006928  28.539600   1.478250   2.717650  42.861900  -0.002396  -0.011062  28.546100   0.000029  -0.005177   2.600810   6.417190   2.173160   0.165153   0.838439   9.870060  -2.629550  -3.864800   2.603260  -0.000000   0.000000   0.000000   1.449070   1.211940  -2.668620   1.587520   4.492550  -6.481710  -5.172560  -2.509790  -3.758390   0.000000   0.000000   0.000000
